<svg fill="none" height="269" viewBox="0 0 281 269" width="281" xmlns="http://www.w3.org/2000/svg">
  <g transform="translate(0 25)">
    <g fill="#3dc17a">
        <path d="M 280.7 140.8 c 0 -33.1 -23.1 -61.1 -53.9 -68.2 c -7.5 -40.9 -43.2 -72.1 -86.4 -72.1 c -48.4 0 -87.7 39.3 -87.7 87.7 v 0.6 c -29.9 4.2 -52.6 29.9 -52.6 60.7 c 0 33.8 27.6 61.4 61.4 61.4 h 149.1 c 38.7 0 70.2 -31.5 70.2 -70.2 z"/>
    </g>
    <path fill="#ffffff" d="M 60.5 178.4 c 1.8 0 3.2 -1.4 3.2 -3.2 v -16.2 h 16.2 c 1.8 0 3.2 -1.4 3.2 -3.2 v -16.2 h 18 c 0.9 0 1.8 -0.4 2.3 -0.9 l 21.4 -21.4 c 5.2 2 10.8 2.9 16.5 2.9 c 26.8 0 48.5 -21.7 48.5 -48.5 c 0 -26.8 -21.7 -48.5 -48.5 -48.5 c -26.8 0 -48.5 21.7 -48.5 48.5 c 0 5.7 0.9 11.3 2.9 16.5 l -60.2 60.2 c -0.5 0.5 -0.9 1.4 -0.9 2.3 v 24.4 c 0 1.8 1.4 3.2 3.2 3.2 z m 90.5 -130.9 c 8.1 0 14.5 6.5 14.5 14.5 c 0 8.1 -6.5 14.5 -14.5 14.5 s -14.6 -6.5 -14.6 -14.5 c 0 -8.1 6.5 -14.5 14.6 -14.5 z" />  
  </g>
</svg>
